<svg width="16" height="16" viewBox="0 0 16 16" fill="none" xmlns="http://www.w3.org/2000/svg">
<rect width="16" height="16" fill="#FF0493"/>
<path d="M2.747 7V0.7H4.205V5.812H7.364V7H2.747ZM11.1332 7.108C10.6352 7.108 10.1732 7.027 9.74717 6.865C9.32717 6.703 8.96117 6.475 8.64917 6.181C8.34317 5.887 8.10317 5.542 7.92917 5.146C7.76117 4.75 7.67717 4.318 7.67717 3.85C7.67717 3.382 7.76117 2.95 7.92917 2.554C8.10317 2.158 8.34617 1.813 8.65817 1.519C8.97017 1.225 9.33617 0.997 9.75617 0.834999C10.1762 0.673 10.6322 0.592 11.1242 0.592C11.6222 0.592 12.0782 0.673 12.4922 0.834999C12.9122 0.997 13.2752 1.225 13.5812 1.519C13.8932 1.813 14.1362 2.158 14.3102 2.554C14.4842 2.944 14.5712 3.376 14.5712 3.85C14.5712 4.318 14.4842 4.753 14.3102 5.155C14.1362 5.551 13.8932 5.896 13.5812 6.19C13.2752 6.478 12.9122 6.703 12.4922 6.865C12.0782 7.027 11.6252 7.108 11.1332 7.108ZM11.1242 5.866C11.4062 5.866 11.6642 5.818 11.8982 5.722C12.1382 5.626 12.3482 5.488 12.5282 5.308C12.7082 5.128 12.8462 4.915 12.9422 4.669C13.0442 4.423 13.0952 4.15 13.0952 3.85C13.0952 3.55 13.0442 3.277 12.9422 3.031C12.8462 2.785 12.7082 2.572 12.5282 2.392C12.3542 2.212 12.1472 2.074 11.9072 1.978C11.6672 1.882 11.4062 1.834 11.1242 1.834C10.8422 1.834 10.5812 1.882 10.3412 1.978C10.1072 2.074 9.90017 2.212 9.72017 2.392C9.54017 2.572 9.39917 2.785 9.29717 3.031C9.20117 3.277 9.15317 3.55 9.15317 3.85C9.15317 4.144 9.20117 4.417 9.29717 4.669C9.39917 4.915 9.53717 5.128 9.71117 5.308C9.89117 5.488 10.1012 5.626 10.3412 5.722C10.5812 5.818 10.8422 5.866 11.1242 5.866ZM4.817 15.108C4.313 15.108 3.83 15.042 3.368 14.91C2.906 14.772 2.534 14.595 2.252 14.379L2.747 13.281C3.017 13.473 3.335 13.632 3.701 13.758C4.073 13.878 4.448 13.938 4.826 13.938C5.114 13.938 5.345 13.911 5.519 13.857C5.699 13.797 5.831 13.716 5.915 13.614C5.999 13.512 6.041 13.395 6.041 13.263C6.041 13.095 5.975 12.963 5.843 12.867C5.711 12.765 5.537 12.684 5.321 12.624C5.105 12.558 4.865 12.498 4.601 12.444C4.343 12.384 4.082 12.312 3.818 12.228C3.56 12.144 3.323 12.036 3.107 11.904C2.891 11.772 2.714 11.598 2.576 11.382C2.444 11.166 2.378 10.89 2.378 10.554C2.378 10.194 2.474 9.867 2.666 9.573C2.864 9.273 3.158 9.036 3.548 8.862C3.944 8.682 4.439 8.592 5.033 8.592C5.429 8.592 5.819 8.64 6.203 8.736C6.587 8.826 6.926 8.964 7.22 9.15L6.77 10.257C6.476 10.089 6.182 9.966 5.888 9.888C5.594 9.804 5.306 9.762 5.024 9.762C4.742 9.762 4.511 9.795 4.331 9.861C4.151 9.927 4.022 10.014 3.944 10.122C3.866 10.224 3.827 10.344 3.827 10.482C3.827 10.644 3.893 10.776 4.025 10.878C4.157 10.974 4.331 11.052 4.547 11.112C4.763 11.172 5 11.232 5.258 11.292C5.522 11.352 5.783 11.421 6.041 11.499C6.305 11.577 6.545 11.682 6.761 11.814C6.977 11.946 7.151 12.12 7.283 12.336C7.421 12.552 7.49 12.825 7.49 13.155C7.49 13.509 7.391 13.833 7.193 14.127C6.995 14.421 6.698 14.658 6.302 14.838C5.912 15.018 5.417 15.108 4.817 15.108ZM9.70337 15V9.888H7.68737V8.7H13.1774V9.888H11.1614V15H9.70337Z" fill="#FFEBF6"/>
</svg>
