<svg width="24" height="24" viewBox="0 0 24 24" fill="none" xmlns="http://www.w3.org/2000/svg">
<path d="M16.0001 3.00002C14.674 3.00002 13.4023 3.52681 12.4646 4.46449C11.5269 5.40217 11.0001 6.67394 11.0001 8.00002C11.0001 9.32611 11.5269 10.5979 12.4646 11.5356C13.4023 12.4732 14.674 13 16.0001 13C17.3262 13 18.598 12.4732 19.5356 11.5356C20.4733 10.5979 21.0001 9.32611 21.0001 8.00002C21.0001 6.67394 20.4733 5.40217 19.5356 4.46449C18.598 3.52681 17.3262 3.00002 16.0001 3.00002ZM9.00911 7.64102C9.07859 6.28893 9.53867 4.986 10.3336 3.89008C11.1286 2.79416 12.2243 1.95229 13.488 1.46646C14.7517 0.980633 16.1292 0.871693 17.4535 1.15284C18.7779 1.43399 19.9923 2.09316 20.9496 3.0505C21.907 4.00783 22.5661 5.22225 22.8473 6.54661C23.1284 7.87097 23.0195 9.24845 22.5337 10.5122C22.0478 11.7759 21.206 12.8716 20.1101 13.6665C19.0141 14.4615 17.7112 14.9215 16.3591 14.991L7.13511 22.273C7.09892 22.3048 7.06049 22.3338 7.02011 22.36C6.92668 22.4239 6.82799 22.4798 6.72511 22.527C6.4112 22.6702 6.06908 22.741 5.72411 22.734C4.87311 22.724 3.88811 22.301 2.79411 21.207C1.70011 20.113 1.27411 19.128 1.26611 18.277C1.259 17.9317 1.32975 17.5892 1.47311 17.275C1.54093 17.1286 1.62622 16.9909 1.72711 16.865L9.00911 7.64102ZM9.40911 10.363L3.28711 18.117C3.27196 18.1618 3.26485 18.2088 3.26611 18.256C3.26711 18.416 3.34311 18.93 4.20611 19.793C5.07111 20.656 5.58611 20.733 5.74611 20.734C5.79259 20.7354 5.83895 20.7286 5.88311 20.714L13.6371 14.591C12.6646 14.241 11.7813 13.6805 11.0505 12.9497C10.3196 12.2188 9.75913 11.3356 9.40911 10.363ZM10.4141 15L8.00011 17.414L6.58611 16L9.00011 13.586L10.4141 15Z" fill="#FF48B0"/>
</svg>
