<svg width="24" height="24" viewBox="0 0 24 24" fill="none" xmlns="http://www.w3.org/2000/svg">
<path d="M6.91394 2.5L1.49994 7.914L0.0859375 6.5L5.49994 1.086L6.91394 2.5ZM18.4999 1.086L23.9139 6.5L22.4999 7.914L17.0859 2.5L18.4999 1.086ZM11.9999 5C9.87821 5 7.84337 5.84285 6.34308 7.34314C4.84279 8.84344 3.99994 10.8783 3.99994 13C3.99994 15.1217 4.84279 17.1566 6.34308 18.6569C7.84337 20.1571 9.87821 21 11.9999 21C14.1217 21 16.1565 20.1571 17.6568 18.6569C19.1571 17.1566 19.9999 15.1217 19.9999 13C19.9999 10.8783 19.1571 8.84344 17.6568 7.34314C16.1565 5.84285 14.1217 5 11.9999 5ZM1.99994 13C1.99994 7.477 6.47694 3 11.9999 3C17.5229 3 21.9999 7.477 21.9999 13C21.9999 18.523 17.5229 23 11.9999 23C6.47694 23 1.99994 18.523 1.99994 13ZM12.9999 7.5V12.586L16.4139 16L14.9999 17.414L10.9999 13.414V7.5H12.9999Z" fill="#FF48B0"/>
</svg>
